<?xml version="1.0" encoding="utf-8"?>
<!-- Generator: Adobe Illustrator 23.0.1, SVG Export Plug-In . SVG Version: 6.00 Build 0)  -->
<svg version="1.1" id="Layer_1" xmlns="http://www.w3.org/2000/svg" xmlns:xlink="http://www.w3.org/1999/xlink" x="0px" y="0px"
	 viewBox="0 0 200 200" style="enable-background:new 0 0 200 200;" xml:space="preserve">
<style type="text/css">
	.st0{clip-path:url(#SVGID_2_);fill:none;stroke:#192645;stroke-width:1.5;stroke-miterlimit:10;}
	.st1{fill:none;stroke:#344E5E;stroke-width:1.44;stroke-linecap:round;stroke-linejoin:round;stroke-miterlimit:10;}
	.st2{fill:none;stroke:#344E5E;stroke-width:1.44;stroke-miterlimit:10;}
</style>
<g>
	<defs>
		<rect id="SVGID_1_" x="-675" y="-3661" width="1550" height="7522"/>
	</defs>
	<clipPath id="SVGID_2_">
		<use xlink:href="#SVGID_1_"  style="overflow:visible;"/>
	</clipPath>
	<path class="st0" d="M-461,2564.4h12.3c1,0,2,0.5,2.6,1.4l5.3,9.5h1.5c1.7,0,3.1,1.1,3.1,3.4v10.5c0,1.7-1.4,3.1-3.1,3.1h-3.1"/>
	<polyline class="st0" points="-487.3,2553.5 -461,2553.5 -461,2592.3 -484.2,2592.3 	"/>
	<line class="st0" x1="-496.6" y1="2592.3" x2="-504.4" y2="2592.3"/>
	<ellipse class="st0" cx="-448.6" cy="2593.8" rx="6.2" ry="6.2"/>
	<ellipse class="st0" cx="-490.4" cy="2593.8" rx="6.2" ry="6.2"/>
	<line class="st0" x1="-461" y1="2592.3" x2="-454.8" y2="2592.3"/>
	<polyline class="st0" points="-457.9,2576.8 -447.1,2576.8 -447.1,2575.2 -450.2,2570.6 	"/>
	<line class="st0" x1="-509" y1="2572.1" x2="-482.7" y2="2572.1"/>
	<line class="st0" x1="-496.6" y1="2562.8" x2="-473.4" y2="2562.8"/>
	<line class="st0" x1="-499.7" y1="2562.8" x2="-502.8" y2="2562.8"/>
	<line class="st0" x1="-490.4" y1="2553.5" x2="-493.5" y2="2553.5"/>
</g>
<line class="st1" x1="105.1" y1="177.1" x2="105.1" y2="178.6"/>
<g>
	<path class="st1" d="M71.3,177.7C30.1,167,4,126.4,11.2,84.4S56.6,13,99.1,16.6s75.1,39.2,75,81.8"/>
	<line class="st1" x1="139" y1="53.3" x2="99.6" y2="92.8"/>
	<line class="st1" x1="84.2" y1="94.9" x2="53.7" y2="77.3"/>
	<path class="st2" d="M92.1,89.3c-3.5-0.3-6.8,1.4-8.6,4.4s-1.8,6.7,0,9.7s5.2,4.7,8.6,4.4c4.8-0.4,8.6-4.4,8.6-9.3
		C100.7,93.8,97,89.7,92.1,89.3z"/>
	<line class="st1" x1="29.8" y1="98.4" x2="35.5" y2="98.4"/>
	<polyline class="st1" points="190,76.8 175.9,106.4 155.6,80.7 	"/>
	<polyline class="st1" points="168.4,183.7 168.4,121.9 138.2,165.5 180.7,164.9 	"/>
	<polyline class="st1" points="131,183.7 92.3,183.7 115.5,160.5 	"/>
	<path class="st1" d="M115.5,160.5c16.2-14.4,11.6-29.1,1.6-34.6c-15.5-8.5-26.9,8.1-25.2,19.1"/>
</g>
</svg>
