<?xml version="1.0" encoding="utf-8"?>
<!-- Generator: Adobe Illustrator 23.0.1, SVG Export Plug-In . SVG Version: 6.00 Build 0)  -->
<svg version="1.1" id="Layer_1" xmlns="http://www.w3.org/2000/svg" xmlns:xlink="http://www.w3.org/1999/xlink" x="0px" y="0px"
	 viewBox="0 0 200 200" style="enable-background:new 0 0 200 200;" xml:space="preserve">
<style type="text/css">
	.st0{clip-path:url(#SVGID_2_);fill:none;stroke:#192645;stroke-width:1.5;stroke-miterlimit:10;}
	.st1{fill:none;stroke:#192645;stroke-width:1.5;stroke-miterlimit:10;}
</style>
<g>
	<defs>
		<rect id="SVGID_1_" x="-675" y="-3661" width="1550" height="7522"/>
	</defs>
	<clipPath id="SVGID_2_">
		<use xlink:href="#SVGID_1_"  style="overflow:visible;"/>
	</clipPath>
	<path class="st0" d="M-461,2564.4h12.3c1,0,2,0.5,2.6,1.4l5.3,9.5h1.5c1.7,0,3.1,1.1,3.1,3.4v10.5c0,1.7-1.4,3.1-3.1,3.1h-3.1"/>
	<polyline class="st0" points="-487.3,2553.5 -461,2553.5 -461,2592.3 -484.2,2592.3 	"/>
	<line class="st0" x1="-496.6" y1="2592.3" x2="-504.4" y2="2592.3"/>
	<ellipse class="st0" cx="-448.6" cy="2593.8" rx="6.2" ry="6.2"/>
	<ellipse class="st0" cx="-490.4" cy="2593.8" rx="6.2" ry="6.2"/>
	<line class="st0" x1="-461" y1="2592.3" x2="-454.8" y2="2592.3"/>
	<polyline class="st0" points="-457.9,2576.8 -447.1,2576.8 -447.1,2575.2 -450.2,2570.6 	"/>
	<line class="st0" x1="-509" y1="2572.1" x2="-482.7" y2="2572.1"/>
	<line class="st0" x1="-496.6" y1="2562.8" x2="-473.4" y2="2562.8"/>
	<line class="st0" x1="-499.7" y1="2562.8" x2="-502.8" y2="2562.8"/>
	<line class="st0" x1="-490.4" y1="2553.5" x2="-493.5" y2="2553.5"/>
</g>
<g>
	<path class="st1" d="M128.7,69.4h30.4c2.5,0,4.9,1.3,6.3,3.3l13,23.5h3.8c4.3,0,7.7,2.8,7.7,8.5v26c0,4.2-3.4,7.7-7.7,7.7h-7.7"/>
	<polyline class="st1" points="63.6,42.6 128.7,42.6 128.7,138.3 71.3,138.3 	"/>
	<line class="st1" x1="40.6" y1="138.3" x2="21.5" y2="138.3"/>
	<ellipse class="st1" cx="159.3" cy="142.2" rx="15.4" ry="15.3"/>
	<ellipse class="st1" cx="56" cy="142.2" rx="15.4" ry="15.3"/>
	<line class="st1" x1="128.7" y1="138.3" x2="144" y2="138.3"/>
	<polyline class="st1" points="136.4,100 163.2,100 163.2,96.2 155.5,84.7 	"/>
	<line class="st1" x1="10" y1="88.5" x2="75.1" y2="88.5"/>
	<line class="st1" x1="40.6" y1="65.5" x2="98.1" y2="65.5"/>
	<line class="st1" x1="33" y1="65.5" x2="25.3" y2="65.5"/>
	<line class="st1" x1="56" y1="42.6" x2="48.3" y2="42.6"/>
</g>
</svg>
