<?xml version="1.0" encoding="utf-8"?>
<!-- Generator: Adobe Illustrator 23.0.1, SVG Export Plug-In . SVG Version: 6.00 Build 0)  -->
<svg version="1.1" id="Layer_1" xmlns="http://www.w3.org/2000/svg" xmlns:xlink="http://www.w3.org/1999/xlink" x="0px" y="0px"
	 viewBox="0 0 200 200" style="enable-background:new 0 0 200 200;" xml:space="preserve">
<style type="text/css">
	.st0{clip-path:url(#SVGID_2_);fill:none;stroke:#192645;stroke-width:1.5;stroke-miterlimit:10;}
	.st1{fill:none;stroke:#344E5E;stroke-width:1.5;stroke-linecap:round;stroke-linejoin:round;stroke-miterlimit:10;}
	.st2{fill:none;stroke:#344E5E;stroke-width:1.5;stroke-miterlimit:10;}
</style>
<g>
	<defs>
		<rect id="SVGID_1_" x="-675" y="-3661" width="1550" height="7522"/>
	</defs>
	<clipPath id="SVGID_2_">
		<use xlink:href="#SVGID_1_"  style="overflow:visible;"/>
	</clipPath>
	<path class="st0" d="M-461,2564.4h12.3c1,0,2,0.5,2.6,1.4l5.3,9.5h1.5c1.7,0,3.1,1.1,3.1,3.4v10.5c0,1.7-1.4,3.1-3.1,3.1h-3.1"/>
	<polyline class="st0" points="-487.3,2553.5 -461,2553.5 -461,2592.3 -484.2,2592.3 	"/>
	<line class="st0" x1="-496.6" y1="2592.3" x2="-504.4" y2="2592.3"/>
	<ellipse class="st0" cx="-448.6" cy="2593.8" rx="6.2" ry="6.2"/>
	<ellipse class="st0" cx="-490.4" cy="2593.8" rx="6.2" ry="6.2"/>
	<line class="st0" x1="-461" y1="2592.3" x2="-454.8" y2="2592.3"/>
	<polyline class="st0" points="-457.9,2576.8 -447.1,2576.8 -447.1,2575.2 -450.2,2570.6 	"/>
	<line class="st0" x1="-509" y1="2572.1" x2="-482.7" y2="2572.1"/>
	<line class="st0" x1="-496.6" y1="2562.8" x2="-473.4" y2="2562.8"/>
	<line class="st0" x1="-499.7" y1="2562.8" x2="-502.8" y2="2562.8"/>
	<line class="st0" x1="-490.4" y1="2553.5" x2="-493.5" y2="2553.5"/>
</g>
<g>
	<path class="st1" d="M190,107.5c-12.4,5.3-29-9.3-25.3-19.4c0.8-3.2,3.5-5.5,6.8-5.8c3.3-0.3,6.4,1.5,7.8,4.5
		c4.3,7.2,1,14.7-3.2,22c-1.8,3.3-9.1,12.6-21.1,3.7 M135.6,83.2c11.6,9,18.6,22.7,18.9,37.4c-0.4,16.5-9.1,31.7-23,40.5l4.5,22.6
		c0.2,1-0.1,2-0.8,2.7c-0.7,0.7-1.7,1.1-2.6,1h-19.8c-2.2-0.1-4.1-1.6-4.8-3.7l-2.4-11.5c-11.3,2-22.9,2-34.2,0l-2.5,11.6
		c-0.7,2.1-2.6,3.6-4.8,3.7H44.2c-1,0.1-2-0.2-2.6-1c-0.7-0.7-1-1.7-0.8-2.7l4.5-21.1c-9-3-16.3-9.9-19.6-18.8h-9.7c-2.7,0-6,0-6-4
		v-22.5c-0.2-1.7,0.3-3.3,1.5-4.5c1.1-1.2,2.7-1.9,4.4-1.8h7.5c1.9-7.9,5.7-15.1,11.1-21.1c-0.8-10.6-5.9-15.6-10.6-24.5
		c16.7-2,28.1,1.7,35.2,7.6c4.8-1.8,9.7-3.1,14.7-3.9"/>
	<path class="st2" d="M113.4,12.4c12.2,0,23.2,7.3,27.8,18.5c4.7,11.2,2.1,24.2-6.5,32.8c-8.6,8.6-21.5,11.2-32.8,6.5
		c-11.3-4.7-18.6-15.6-18.6-27.8C83.4,25.9,96.8,12.4,113.4,12.4z"/>
	<path class="st1" d="M45.5,106.1c-1.6,1.6-3,3.3-4.1,5.3 M105.5,55.3c2.5,1.2,5.3,1.7,8.1,1.5c9.9-0.4,10.6-13.8-0.9-13.9
		c-11.5-0.1-11.4-13.5-0.8-13.9c2.6-0.1,5.2,0.4,7.6,1.6"/>
</g>
</svg>
